<svg width="117" height="36" viewBox="0 0 117 36" fill="none" xmlns="http://www.w3.org/2000/svg">
<rect width="117" height="36" rx="18" fill="#EEEFF1"/>
<path d="M31.5 9H16.5C16.1022 9 15.7206 9.15804 15.4393 9.43934C15.158 9.72064 15 10.1022 15 10.5V25.5C15 25.8978 15.158 26.2794 15.4393 26.5607C15.7206 26.842 16.1022 27 16.5 27H31.5C31.8978 27 32.2794 26.842 32.5607 26.5607C32.842 26.2794 33 25.8978 33 25.5V10.5C33 10.1022 32.842 9.72064 32.5607 9.43934C32.2794 9.15804 31.8978 9 31.5 9Z" stroke="#373B40" stroke-width="1.5" stroke-linecap="round" stroke-linejoin="round"/>
<path d="M21 17.5C21.663 17.5 22.2989 17.2366 22.7678 16.7678C23.2366 16.2989 23.5 15.663 23.5 15C23.5 14.337 23.2366 13.7011 22.7678 13.2322C22.2989 12.7634 21.663 12.5 21 12.5C20.337 12.5 19.7011 12.7634 19.2322 13.2322C18.7634 13.7011 18.5 14.337 18.5 15C18.5 15.663 18.7634 16.2989 19.2322 16.7678C19.7011 17.2366 20.337 17.5 21 17.5ZM25.895 19.11C25.9898 18.9831 26.1133 18.8806 26.2554 18.8108C26.3975 18.741 26.5542 18.706 26.7125 18.7085C26.8708 18.7111 27.0263 18.7513 27.1661 18.8257C27.3058 18.9001 27.4259 19.0066 27.5165 19.1365L31.904 25.428C32.366 26.091 31.8915 27 31.084 27H20L25.895 19.11Z" stroke="#373B40" stroke-width="1.5" stroke-linecap="round" stroke-linejoin="round"/>
<path d="M50.5137 11.4531V23.6348H49.4336V11.4531H50.5137ZM44.0469 12.3965C45.8516 12.4102 47.1504 14.0508 47.1504 16.6348C47.1504 19.2188 45.8516 20.8594 44.0469 20.8594C42.2285 20.8594 40.9434 19.2188 40.9434 16.6348C40.9434 14.0508 42.2285 12.4102 44.0469 12.3965ZM44.0469 13.3535C42.8301 13.3672 41.9824 14.6523 41.9824 16.6348C41.9824 18.6172 42.8301 19.9023 44.0469 19.9023C45.2637 19.9023 46.1113 18.6172 46.1113 16.6348C46.1113 14.6523 45.2637 13.3672 44.0469 13.3535ZM58.9219 12.6562V20.5586H53.3027V12.6562H58.9219ZM54.3555 13.5176V19.6836H57.8691V13.5176H54.3555ZM62.6133 11.4531V23.6348H61.5332V11.4531H62.6133ZM69.0391 15.1855C69.0391 17.25 70.543 19.3418 72.334 20.1211L71.7324 20.9688C70.3105 20.3193 69.0801 18.918 68.5195 17.2363C67.9453 19.0205 66.7217 20.5723 65.334 21.2695L64.6914 20.4219C66.4277 19.5879 67.9453 17.291 67.959 15.1855V13.5996H65.0879V12.7109H71.9375V13.5996H69.0391V15.1855ZM74.7129 11.4531V23.6074H73.6328V11.4531H74.7129ZM91.3926 17.2363V18.1387H80.3047V17.2363H91.3926ZM90.0938 15.1992V16.0742H81.7129V11.9453H90.0117V12.8477H82.7656V15.1992H90.0938ZM85.8418 19.2051C88.4531 19.2051 90.0117 19.998 90.0254 21.3926C90.0117 22.8008 88.4531 23.5801 85.8418 23.5801C83.2168 23.5801 81.6445 22.8008 81.6445 21.3926C81.6445 19.998 83.2168 19.2051 85.8418 19.2051ZM85.8418 20.0391C83.8867 20.0527 82.7246 20.5449 82.7383 21.3926C82.7246 22.2539 83.8867 22.7324 85.8418 22.7324C87.7695 22.7324 88.9453 22.2539 88.9453 21.3926C88.9453 20.5449 87.7695 20.0527 85.8418 20.0391ZM103.52 18.1523V19.041H92.3906V18.1523H97.4219V16.8672H93.8398V13.9004H101.004V12.6426H93.7988V11.7676H102.084V14.707H94.9062V16.0059H102.344V16.8672H98.4746V18.1523H103.52ZM102.152 19.9707V23.498H101.072V20.8457H93.6348V19.9707H102.152Z" fill="#373B40"/>
</svg>
