<svg width="209" height="26" viewBox="0 0 209 26" fill="none" xmlns="http://www.w3.org/2000/svg">
<g clip-path="url(#clip0_77_124)">
<path d="M2.52539 0V5.86776L13.2179 9.27535L23.4626 8.67176L22.0034 6.21158L2.52539 0Z" fill="white"/>
<path d="M23.1837 9.45117L2.4473 10.6813L0 13.661L2.43186 16.5796L12.6688 15.976L23.0139 12.5608L23.1837 12.7823V9.45117Z" fill="white"/>
<path d="M24.1342 15.3646L22.7291 13.4622L2.52539 20.1322V25.9999L22.5747 19.3758L24.1342 15.3646Z" fill="white"/>
<path d="M31.8457 21.0108V6.31079H38.0759C39.4887 6.31079 40.6158 6.69281 41.4651 7.44156C42.3143 8.19031 42.7312 9.13771 42.7312 10.4136C42.7312 11.2694 42.2602 12.2932 41.936 12.8967C41.4959 13.7219 40.5695 14.2185 39.8207 14.5165C39.0718 14.8145 36.9488 14.9902 35.5514 14.9902H33.9842V20.9955H31.8534L31.8457 21.0108ZM37.7053 8.18267H33.9765V13.1336H37.3734C38.0527 13.1336 39.0332 12.8585 39.5505 12.5071C39.8979 12.2702 40.5309 11.7965 40.5309 10.3678C40.5309 8.86266 39.5891 8.18267 37.7053 8.18267Z" fill="white"/>
<path d="M45.0312 6.33374H47.1543V21.0108H45.0312V6.33374Z" fill="white"/>
<path d="M63.0044 17.6033V19.9107C61.4449 20.7511 59.6538 21.1713 57.6157 21.1713C55.9636 21.1713 54.5585 20.8428 53.4005 20.1857C52.2424 19.5287 51.3314 18.6195 50.6598 17.4658C49.9881 16.3121 49.6484 15.0591 49.6484 13.7144C49.6484 11.5827 50.4205 9.77961 51.9568 8.32795C53.4931 6.86865 55.3923 6.14282 57.6543 6.14282C59.2138 6.14282 60.9431 6.54776 62.8423 7.34999V9.61153C61.1052 8.63357 59.4145 8.14459 57.7624 8.14459C56.1102 8.14459 54.6511 8.67177 53.5317 9.73377C52.4123 10.7958 51.8487 12.1252 51.8487 13.722C51.8487 15.3188 52.3968 16.6559 53.5008 17.695C54.6048 18.7341 56.0176 19.246 57.7392 19.246C59.4608 19.246 61.2905 18.7035 63.0044 17.6109V17.6033Z" fill="white"/>
<path d="M64.1387 6.31079H76.5219V8.18267H71.3571V21.0108H69.2263V8.18267H64.1387V6.31079Z" fill="white"/>
<path d="M78.3281 6.33374H80.4512V21.0108H78.3281V6.33374Z" fill="white"/>
<path d="M90.8055 6.12744C93.0984 6.12744 95.0053 6.84563 96.5262 8.28201C98.047 9.71839 98.8113 11.5139 98.8113 13.6837C98.8113 15.8536 98.0393 17.6414 96.503 19.0549C94.9667 20.4683 93.0289 21.1789 90.682 21.1789C88.335 21.1789 86.5826 20.4683 85.1003 19.0549C83.6103 17.6338 82.8691 15.8612 82.8691 13.7219C82.8691 11.5826 83.618 9.71839 85.1157 8.28201C86.6134 6.84563 88.5126 6.12744 90.7978 6.12744H90.8055ZM90.8904 8.12156C89.192 8.12156 87.8023 8.64875 86.7061 9.69547C85.6175 10.7498 85.0694 12.0869 85.0694 13.7219C85.0694 15.3569 85.6175 16.6176 86.7138 17.672C87.8101 18.7187 89.1843 19.2459 90.8287 19.2459C92.4731 19.2459 93.8627 18.711 94.9667 17.6414C96.0707 16.5718 96.6265 15.2347 96.6265 13.6379C96.6265 12.041 96.0707 10.7728 94.9667 9.71839C93.8627 8.65639 92.5039 8.1292 90.8904 8.1292V8.12156Z" fill="white"/>
<path d="M112.985 6.33374H115V21.0108H113.178L103.265 9.71076V21.0108H101.273V6.33374H102.995L112.993 17.7331V6.33374H112.985Z" fill="white"/>
</g>
<path d="M160.656 7.25C160.641 11.375 159.297 15.0469 154.328 17.5781L153.5 16.4531C155.953 15.1953 157.469 13.6875 158.312 11.9062L153.781 12.3438L153.547 11.0625L158.781 10.7344C158.992 10.0156 159.125 9.25 159.188 8.45312H154.266V7.25H160.656ZM165.172 5.82812V19.8281H163.703V12.5938H160.625V11.375H163.703V5.82812H165.172ZM180.141 13.8281V15.0469H177V19.9062H175.516V15.0469H172V19.9062H170.516V15.0469H167.328V13.8281H180.141ZM178.531 6.5625V12.0781H168.938V6.5625H178.531ZM170.391 7.75V10.8906H177.047V7.75H170.391ZM192.797 5.82812V19.8281H191.312V5.82812H192.797ZM183.5 7.1875V14.9844C185.539 14.9688 187.688 14.8047 189.938 14.3438L190.141 15.5938C187.656 16.0938 185.406 16.2656 183.203 16.2656H182.031V7.1875H183.5ZM202.781 7.0625V8.28125H197.328V10.9844H202.25V12.1719H197.328V15.3125C199.781 15.3047 201.547 15.2031 203.625 14.875L203.781 16.0781C201.562 16.4375 199.641 16.5156 197 16.5156H195.859V7.0625H202.781ZM206.641 5.82812V19.8281H205.141V5.82812H206.641Z" fill="white"/>
<defs>
<clipPath id="clip0_77_124">
<rect width="115" height="26" fill="white"/>
</clipPath>
</defs>
</svg>
