<svg width="100" height="24" viewBox="0 0 100 24" fill="none" xmlns="http://www.w3.org/2000/svg">
<path d="M28.1064 18.0631V5.09369H33.6716C34.8898 5.09369 35.8617 5.43091 36.5939 6.09185C37.3262 6.7528 37.6857 7.84539 37.6857 8.97169C37.6857 9.72706 37.4993 10.5836 37.1265 11.1636C36.7537 11.7436 36.2478 12.1685 35.5954 12.4315C34.9497 12.6946 34.0244 12.8227 32.8128 12.8227H29.9504V18.0563H28.1131L28.1064 18.0631ZM33.352 6.74606H29.9504V11.1771H33.4652C34.2108 11.1771 34.7833 11.0017 35.1827 10.6443C35.5821 10.2868 35.7884 9.59217 35.7884 8.92448C35.7884 7.59584 34.9763 6.73931 33.352 6.73931V6.74606Z" fill="#555B64"/>
<path d="M39.668 5.11389H41.4986V18.0698H39.668V5.11389Z" fill="#555B64"/>
<path d="M55.1677 15.0617V17.0985C53.823 17.8404 52.2786 18.2113 50.5212 18.2113C49.0967 18.2113 47.8851 17.9213 46.8866 17.3413C45.8881 16.7613 45.1026 15.9587 44.5234 14.9403C43.9443 13.9219 43.6514 12.8159 43.6514 11.6288C43.6514 9.74717 44.3171 8.1555 45.6418 6.87408C46.9665 5.5859 48.6041 4.94519 50.5545 4.94519C51.8992 4.94519 53.3903 5.30264 55.0279 6.0108V8.00713C53.5301 7.14385 52.0723 6.71221 50.6477 6.71221C49.2231 6.71221 47.965 7.17757 46.9998 8.11504C46.0345 9.0525 45.5486 10.226 45.5486 11.6356C45.5486 13.0452 46.0212 14.2254 46.9731 15.1427C47.9251 16.0599 49.1433 16.5118 50.6277 16.5118C52.1122 16.5118 53.6899 16.0329 55.1677 15.0685V15.0617Z" fill="#555B64"/>
<path d="M56.1455 5.09369H66.8231V6.74606H62.3697V18.0698H60.5324V6.74606H56.1455V5.09369Z" fill="#555B64"/>
<path d="M68.3799 5.11389H70.2105V18.0698H68.3799V5.11389Z" fill="#555B64"/>
<path d="M79.1391 4.92499C81.1162 4.92499 82.7605 5.55896 84.0719 6.8269C85.3833 8.09483 86.0423 9.67976 86.0423 11.5952C86.0423 13.5105 85.3766 15.0887 84.0519 16.3364C82.7272 17.5841 81.0563 18.2114 79.0326 18.2114C77.0089 18.2114 75.4978 17.5841 74.2197 16.3364C72.935 15.082 72.2959 13.5173 72.2959 11.6289C72.2959 9.74046 72.9416 8.09483 74.233 6.8269C75.5245 5.55896 77.1621 4.92499 79.1325 4.92499H79.1391ZM79.2124 6.69201C77.7479 6.69201 76.5496 7.15737 75.6044 8.08135C74.6657 9.01207 74.1931 10.1923 74.1931 11.6356C74.1931 13.0789 74.6657 14.1917 75.611 15.1225C76.5563 16.0464 77.7412 16.5118 79.1591 16.5118C80.577 16.5118 81.7752 16.0397 82.7272 15.0955C83.6791 14.1513 84.1584 12.971 84.1584 11.5614C84.1584 10.1519 83.6791 9.0323 82.7272 8.10158C81.7752 7.16411 80.6036 6.69875 79.2124 6.69875V6.69201Z" fill="#555B64"/>
<path d="M98.2625 5.11389H99.9999V18.0698H98.4289L89.8815 8.0949V18.0698H88.1641V5.11389H89.6485L98.2692 15.1765V5.11389H98.2625Z" fill="#555B64"/>
<path d="M2.17773 0.524536V5.7042L11.3975 8.71218L20.2311 8.17938L18.973 6.0077L2.17773 0.524536Z" fill="#555B64"/>
<path d="M19.9905 8.86725L2.11022 9.95309L0 12.5834L2.09691 15.1597L10.9239 14.6269L19.8441 11.6122L19.9905 11.8078V8.86725Z" fill="#555B64"/>
<path d="M20.8102 14.0874L19.5987 12.4081L2.17773 18.2959V23.4756L19.4656 17.6282L20.8102 14.0874Z" fill="#555B64"/>
</svg>
